HIERARCHY
ROOT Hips
{
  OFFSET 123.917 100.801 -182.33
  CHANNELS 6 Xposition Yposition Zposition Zrotation Xrotation Yrotation
  JOINT RightUpLeg
  {
    OFFSET -8.9458 -8.66707 0.101652
    CHANNELS 3 Zrotation Xrotation Yrotation
    JOINT RightLeg
    {
      OFFSET 0 -44.4227 1.3727
      CHANNELS 3 Zrotation Xrotation Yrotation
      JOINT RightFoot
      {
        OFFSET 0.253549 -42.0924 -1.46059
        CHANNELS 3 Zrotation Xrotation Yrotation
        JOINT RightToes
        {
          OFFSET 0.04 -4.41509 8.4991
          CHANNELS 3 Zrotation Xrotation Yrotation
          End Site
          {
            OFFSET -0.08 -0.137448 9.77979
          }
        }
      }
    }
  }
  JOINT Spine
  {
    OFFSET 0 11.8905 0
    CHANNELS 3 Zrotation Xrotation Yrotation
    JOINT Spine1
    {
      OFFSET 0 25.6574 0.127663
      CHANNELS 3 Zrotation Xrotation Yrotation
      JOINT HEad
      {
        OFFSET 0 8.73416 0.011341
        CHANNELS 3 Zrotation Xrotation Yrotation
        End Site
        {
          OFFSET -0.29 12.7742 2.51395
        }
      }
      JOINT LeftShoulder1
      {
        OFFSET 8.99 -0.362252 -0.22
        CHANNELS 3 Zrotation Xrotation Yrotation
        JOINT LeftArm
        {
          OFFSET 10.2827 -0.00338 0.322123
          CHANNELS 3 Zrotation Xrotation Yrotation
          JOINT LeftForeArm
          {
            OFFSET 32.7669 0.099144 -1.42434
            CHANNELS 3 Zrotation Xrotation Yrotation
            JOINT LeftHand
            {
              OFFSET 27.5643 0.085362 1.02216
              CHANNELS 3 Zrotation Xrotation Yrotation
              End Site
              {
                OFFSET 16.7443 -0.6 1.50291
              }
            }
          }
        }
      }
      JOINT RightShoulder
      {
        OFFSET -8.99 -0.362252 -0.22
        CHANNELS 3 Zrotation Xrotation Yrotation
        JOINT RightArm
        {
          OFFSET -10.2827 -0.00338 0.322123
          CHANNELS 3 Zrotation Xrotation Yrotation
          JOINT RightForeArm
          {
            OFFSET -32.8971 0.099144 -1.42434
            CHANNELS 3 Zrotation Xrotation Yrotation
            JOINT RightHand
            {
              OFFSET -27.4921 0.085362 1.02216
              CHANNELS 3 Zrotation Xrotation Yrotation
              End Site
              {
                OFFSET -16.6312 -0.6 1.50291
              }
            }
          }
        }
      }
    }
  }
  JOINT LeftUpLeg
  {
    OFFSET 8.9458 -8.66707 0.101652
    CHANNELS 3 Zrotation Xrotation Yrotation
    JOINT LeftLeg
    {
      OFFSET 0 -44.4227 1.3727
      CHANNELS 3 Zrotation Xrotation Yrotation
      JOINT LeftFoot
      {
        OFFSET -0.253549 -42.0924 -1.46059
        CHANNELS 3 Zrotation Xrotation Yrotation
        JOINT LeftToes
        {
          OFFSET -0.04 -4.41509 8.4991
          CHANNELS 3 Zrotation Xrotation Yrotation
          End Site
          {
            OFFSET 0.08 -0.047448 9.77979
          }
        }
      }
    }
  }
}
MOTION
Frames:	19
Frame Time:	0.0166667
133.024 97.7687 15.6005 -0.240489 8.63212 174.831 5.26934 11.9436 7.98264 3.31844 25.0921 -6.36796 2.57504 -9.38135 -0.0658852 -0.84688 -7.92376 0.661676 2.00457 3.4804 3.06163 2.65658 16.0974 2.68261 -9.82323 -11.5444 -0.979454 -6.21202e-016 3.18055e-015 -0 -157.722 -75.2743 -74.7862 9.97498 9.27855 0.443893 0.368473 9.90896 -0.00117933 13.6215 -1.08728 -8.77612 127.922 -22.3812 54.2722 -18.8296 2.92191 7.58104 -0.369625 9.91382 0.00119893 -0.616472 -16.5334 -15.0074 -5.22137 9.4078 15.0416 -2.8929 -2.1074 0.0705442 -8.69646 5.40404 1.53568 
132.755 97.8283 13.4831 -0.369886 9.1314 174.428 4.5609 13.2524 7.06178 3.03085 26.1119 -5.11128 2.77665 -8.97003 -0.0582805 -1.3655 -7.61027 0.782303 1.98675 3.47909 2.94185 2.34887 16.2553 2.71355 -9.65999 -11.5318 -0.418324 2.06239e-015 1.59028e-015 -0 -158.241 -76.6479 -75.1853 9.59482 9.35701 0.599395 0.368473 9.90896 -0.00117933 12.9892 -1.03414 -8.6645 127.84 -22.3604 53.1987 -18.2119 3.11894 7.4771 -0.369625 9.91382 0.00119893 -0.960553 -14.8918 -14.1334 -5.3457 9.68947 14.2751 -3.19973 -1.86516 0.0814612 -9.06971 5.1346 1.73612 
132.514 98.157 11.4425 -0.737221 9.2995 174.383 3.78626 14.1943 6.27885 2.48839 26.8044 -4.34289 2.94082 -8.19589 -0.0650332 -2.11139 -7.29213 0.951374 1.34229 3.69016 2.63172 2.03775 15.3933 2.46054 -9.07008 -10.9677 0.476666 -9.10061e-016 -1.59028e-015 -0 -156.319 -78.8078 -73.3224 8.74665 9.53181 0.946162 0.368473 9.90896 -0.00117933 13.1019 -1.0008 -8.4788 127.806 -23.1822 52.411 -17.9296 3.27436 7.24061 -0.369625 9.91382 0.00119893 -1.51465 -13.5285 -14.1621 -5.26066 9.13627 14.1061 -3.02315 -0.532823 0.113592 -8.28114 6.81513 1.01249 
132.289 98.55 9.40739 -1.20908 9.28952 174.545 2.97218 14.6952 5.53625 1.99658 27.7809 -3.76644 3.12629 -7.23172 -0.0790463 -3.4072 -6.8973 1.25525 0.547208 3.99912 2.22502 1.70559 14.0705 2.08855 -8.38737 -10.2368 1.40745 4.72114e-016 0 -0 -152.746 -81.0585 -69.8924 7.79886 9.72288 1.33312 0.368473 9.90896 -0.00117933 13.2301 -0.953516 -8.21125 127.938 -24.4837 51.5746 -17.7569 3.36451 7.11406 -0.369625 9.91382 0.00119893 -2.13285 -12.4329 -14.6478 -5.24778 8.65824 14.5029 -2.86526 0.74315 0.147361 -7.46568 8.87178 0.206193 
132.088 98.8258 7.31903 -1.67731 9.146 174.859 2.17662 14.5059 4.74815 1.82977 29.7455 -3.23289 3.34754 -6.31289 -0.0926235 -5.68149 -6.06318 1.84911 0.00673813 4.34508 1.7737 1.38556 12.574 1.69297 -7.86187 -9.665 2.09481 -1.36664e-015 0 3.97569e-016 -149.79 -82.8466 -67.115 7.14214 9.8442 1.60102 0.368473 9.90896 -0.00117933 12.6762 -0.850694 -7.80088 128.418 -26.0366 50.3235 -17.4926 3.3354 7.4204 -0.369625 9.91382 0.00119893 -2.72547 -11.8311 -15.6005 -5.67931 9.24069 16.0974 -3.23033 0.874941 0.168043 -8.1669 9.97122 0.227948 
131.883 99.0668 5.24614 -2.18225 8.95589 175.288 1.31709 13.8852 3.95628 1.81467 32.1745 -2.78596 3.63741 -5.13961 -0.118951 -8.82417 -5.76529 2.55801 -0.446746 4.69485 1.29852 0.933474 11.099 1.30318 -7.34112 -9.15392 2.63486 1.49089e-016 0 3.97569e-016 -146.668 -84.2554 -64.2136 6.6521 9.92905 1.80081 0.368473 9.90896 -0.00117933 12.0627 -0.747699 -7.39939 128.98 -27.741 49.0891 -17.3279 3.25901 7.78165 -0.369625 9.91382 0.00119893 -3.37358 -11.3358 -16.1473 -6.19395 10.1185 17.1017 -3.59854 0.422392 0.171483 -8.82577 10.7484 0.298237 
131.642 99.3057 3.22706 -2.74341 8.88325 175.809 0.297532 13.0858 3.2144 1.99378 34.7683 -2.59632 4.06324 -3.53327 -0.163435 -13.0377 -7.19689 3.30985 -0.793749 4.97207 0.823441 0.101308 10.0771 1.00719 -6.67266 -8.73435 2.9941 -2.48481e-016 7.95139e-016 -0 -144.954 -85.0884 -62.7476 6.46077 9.96122 1.87877 0.368473 9.90896 -0.00117933 11.9258 -0.704036 -7.20123 129.426 -29.3376 48.251 -17.4191 3.21762 7.81555 -0.369625 9.91382 0.00119893 -4.17959 -10.5087 -14.8831 -6.34952 10.8828 15.0452 -3.51375 -0.566596 0.138633 -7.97855 11.5424 -0.252944 
131.382 99.5094 1.2942 -3.32495 8.74253 176.337 -0.738503 11.8824 2.39128 2.0743 37.5547 -2.16163 4.54363 -1.36565 -0.241526 -17.6081 -9.33526 3.97823 -1.20167 5.24537 0.391376 -0.706865 9.08957 0.708223 -6.11094 -8.34268 3.28043 9.44227e-016 -1.59028e-015 3.97569e-016 -141.273 -85.62 -59.3226 6.18768 10.003 1.99001 0.368473 9.90896 -0.00117933 11.8343 -0.666973 -7.01684 129.911 -31.0258 47.6399 -17.6742 3.1268 7.85823 -0.369625 9.91382 0.00119893 -5.12364 -9.7038 -13.4593 -6.30497 11.5937 12.5212 -3.29614 -1.64402 0.0996817 -6.70369 11.9048 -0.869347 
131.104 99.6488 -0.492151 -3.92427 8.34073 176.81 -1.72476 10.0817 1.25137 1.50658 40.4101 -0.524652 5.07268 2.28331 -0.409157 -22.8636 -12.398 4.33391 -1.93367 5.60323 0.0447001 -1.11201 7.66464 0.287259 -5.91119 -7.81568 3.63168 2.98177e-016 0 1.59028e-015 -126.871 -86.0341 -45.1529 5.29234 10.1427 2.35443 0.368473 9.90896 -0.00117933 11.4744 -0.589779 -6.66064 130.573 -33.0727 47.2318 -18.0874 2.89093 8.20503 -0.369625 9.91382 0.00119893 -6.16192 -9.22435 -13.2105 -6.16773 12.1162 11.554 -3.04356 -2.13966 0.0860937 -5.61889 11.238 -1.14747 
130.824 99.7449 -2.17731 -4.44605 7.86547 177.141 -2.62275 7.83384 0.178063 0.573023 43.4444 1.11592 5.51807 5.21653 -0.553257 -26.1166 -13.8733 4.58252 -2.6818 5.91043 -0.191024 -1.3398 6.39136 -0.0897395 -5.93935 -7.48184 3.92148 -1.49089e-016 2.38542e-015 -7.95139e-016 -113.329 -85.8321 -31.8309 4.38075 10.2844 2.72504 0.368473 9.90896 -0.00117933 11.0256 -0.513184 -6.31523 131.253 -35.0345 47.0153 -18.5476 2.6266 8.59588 -0.369625 9.91382 0.00119893 -7.13461 -8.91997 -13.6092 -6.0615 12.6623 11.4584 -2.95772 -2.67226 0.0747824 -4.74877 10.338 -1.278 
130.559 99.7944 -3.77919 -4.79519 7.4413 177.162 -3.27526 5.13519 -0.56488 -0.289805 47.0634 1.6019 5.70576 4.83068 -0.542877 -23.8492 -9.78356 5.05811 -3.21259 6.02535 -0.231246 -1.424 5.81867 -0.267342 -6.22182 -7.7118 4.04535 4.96962e-017 -1.59028e-015 7.95139e-016 -112.293 -85.0974 -31.0241 3.89008 10.3606 2.92429 0.368473 9.90896 -0.00117933 10.4159 -0.460152 -6.10354 131.859 -36.4416 46.8235 -18.9072 2.42422 8.8832 -0.369625 9.91382 0.00119893 -7.89574 -8.80592 -14.8339 -6.18209 13.51 12.5882 -3.46281 -3.85673 0.0482688 -4.39853 10.0207 -1.33818 
130.309 99.8411 -5.31977 -5.00154 7.06683 177.055 -3.7403 2.27469 -0.906286 -0.872236 50.4289 0.972428 5.63114 3.26567 -0.472782 -19.0081 -4.75239 5.1163 -3.57475 6.05576 -0.20956 -1.47452 5.597 -0.344191 -6.50812 -8.21494 4.07777 4.96962e-017 0 -7.95139e-016 -117.728 -84.0991 -36.7212 3.79837 10.3776 2.96148 0.368473 9.90896 -0.00117933 10.0909 -0.437922 -6.01898 132.313 -37.5712 46.8994 -19.2869 2.26497 9.02502 -0.369625 9.91382 0.00119893 -8.44595 -8.64525 -16.1196 -6.41335 14.2823 13.8582 -3.99426 -5.03443 0.0211409 -4.28665 9.6268 -1.27463 
130.085 99.9515 -6.83359 -5.0211 6.78174 176.962 -3.9196 -0.451361 -0.598106 -0.689306 52.6605 -1.72179 5.13297 1.84619 -0.39158 -12.4602 -2.55145 3.79746 -3.67129 6.07195 -0.27224 -1.65096 5.5072 -0.37775 -6.50869 -8.81243 4.08057 4.96962e-017 -7.95139e-016 -0 -126.894 -82.8702 -46.2289 4.28833 10.3147 2.76255 0.368473 9.90896 -0.00117933 10.6383 -0.4664 -6.11106 132.478 -38.5379 47.5515 -19.7775 2.16873 8.88717 -0.369625 9.91382 0.00119893 -8.65925 -8.1413 -16.6558 -6.61787 14.6015 14.0239 -4.00207 -5.57171 0.00564275 -4.30528 8.59152 -0.984532 
129.877 100.054 -8.30102 -4.96151 6.58555 176.827 -3.90832 -3.07977 0.0993971 0.0531001 54.0781 -4.90905 4.53998 0.414306 -0.310182 -6.16031 -1.69094 2.25085 -3.69784 6.04453 -0.297495 -1.87536 5.70618 -0.331134 -6.38469 -9.54017 3.98553 9.93923e-017 -7.95139e-016 -7.95139e-016 -136.195 -81.1315 -55.8551 5.17799 10.1837 2.40102 0.368473 9.90896 -0.00117933 11.5589 -0.530333 -6.33451 132.511 -39.3484 48.5354 -20.3232 2.10942 8.59867 -0.369625 9.91382 0.00119893 -8.75124 -7.52572 -16.7617 -6.76486 14.8567 13.84 -3.86083 -6.00844 -0.00839548 -4.22598 7.44551 -0.696464 
129.672 100.09 -9.70378 -4.92496 6.52477 176.596 -3.86024 -5.5384 1.11403 0.881869 54.9092 -6.75935 4.15287 -0.711225 -0.260852 -3.13885 -2.1947 1.46647 -3.82389 5.94188 -0.172688 -2.13339 6.42141 -0.149679 -6.23942 -10.4787 3.70166 -2.48481e-016 0 -0 -144.631 -78.7127 -64.4993 6.47343 9.96398 1.87367 0.368473 9.90896 -0.00117933 12.4888 -0.621514 -6.67794 132.47 -39.9901 49.6875 -20.9094 2.09555 8.1638 -0.369625 9.91382 0.00119893 -8.91802 -6.91673 -16.3029 -6.78045 15.3409 13.6299 -3.77602 -6.73157 -0.0282191 -3.62983 6.60381 -0.689068 
129.483 100.085 -11.0724 -4.88153 6.49791 176.413 -3.67808 -7.84938 2.15634 1.51564 55.0372 -7.7413 3.8775 -1.63566 -0.226796 -1.59159 -3.34252 0.990809 -4.02966 5.84095 -0.0167579 -2.40945 7.22187 0.0573454 -5.97452 -11.3156 3.3557 3.97569e-016 -7.95139e-016 -0 -149.628 -75.8814 -69.6567 7.78788 9.73059 1.33763 0.368473 9.90896 -0.00117933 13.6083 -0.738404 -7.08913 132.451 -40.6642 51.0464 -21.4978 2.04379 7.8226 -0.369625 9.91382 0.00119893 -9.13211 -6.33577 -15.8303 -6.73412 15.9352 13.4679 -3.70823 -7.56624 -0.0506095 -3.05765 5.85147 -0.696041 
129.315 100.041 -12.4249 -4.83697 6.40857 176.422 -3.36806 -10.0374 2.77327 1.50188 54.3612 -7.56982 3.8015 -2.41049 -0.201344 -0.704318 -4.34833 0.736286 -4.38665 5.82269 0.0919073 -2.65588 7.7205 0.190791 -5.47991 -11.7098 3.05553 -1.98785e-016 0 -0 -150.836 -73.0195 -71.0426 8.68985 9.55874 0.9694 0.368473 9.90896 -0.00117933 15.0124 -0.878443 -7.51571 132.662 -41.612 52.6793 -22.0288 1.82432 7.95431 -0.369625 9.91382 0.00119893 -9.42254 -5.8874 -15.9701 -6.6822 16.6538 13.6046 -3.697 -8.5751 -0.0779538 -3.26982 5.15251 -0.421624 
129.171 99.9741 -13.78 -4.78804 6.28867 176.578 -3.0161 -12.0357 3.35664 1.43783 52.9537 -7.12701 3.68402 -2.8783 -0.186797 -0.274152 -5.41904 0.608722 -4.79439 5.84375 0.144694 -2.92243 8.01326 0.271618 -4.84261 -11.8255 2.77191 1.98785e-016 0 -0 -150.449 -70.2327 -70.8997 9.33922 9.43179 0.704086 0.368473 9.90896 -0.00117933 16.5941 -1.03659 -7.94676 132.926 -42.6794 54.4737 -22.5512 1.58578 8.1459 -0.369625 9.91382 0.00119893 -9.72044 -5.47207 -16.3477 -6.62558 17.3843 13.8441 -3.71076 -9.43258 -0.100692 -3.14023 4.3839 -0.239138 
129.062 99.8903 -15.1655 -4.74937 6.12727 176.897 -2.67715 -13.7723 4.22504 1.84223 50.7974 -7.36687 3.11154 -2.64408 -0.188823 0.127728 -6.72688 0.487812 -5.20841 5.90252 0.0845545 -3.28817 8.01401 0.272582 -4.06713 -11.6786 2.53948 -2.98177e-016 -1.59028e-015 -3.97569e-016 -148.945 -67.7246 -69.7576 9.72426 9.36556 0.546802 0.368473 9.90896 -0.00117933 18.3535 -1.21493 -8.36503 133.113 -43.8047 56.3691 -23.1562 1.44908 8.0342 -0.369625 9.91382 0.00119893 -9.99669 -5.05406 -16.823 -6.57358 18.0625 14.1178 -3.74116 -9.67731 -0.105034 -1.1559 3.32589 -0.633428 
